<?xml version="1.0" standalone="no"?>
<!DOCTYPE svg PUBLIC "-//W3C//DTD SVG 20010904//EN"
 "http://www.w3.org/TR/2001/REC-SVG-20010904/DTD/svg10.dtd">
<svg version="1.0" xmlns="http://www.w3.org/2000/svg"
 width="100.000000pt" height="100.000000pt" viewBox="0 0 100.000000 100.000000"
 preserveAspectRatio="xMidYMid meet">
<metadata>
Created by potrace 1.14, written by Peter Selinger 2001-2017
</metadata>
<g transform="translate(0.000000,100.000000) scale(0.100000,-0.100000)"
fill="#000000" stroke="none">
<path d="M460 886 c-19 -7 -49 -11 -67 -9 -35 5 -57 -5 -125 -57 -52 -40 -79
-77 -125 -170 -30 -61 -32 -69 -27 -145 7 -97 27 -165 57 -192 12 -11 29 -34
38 -50 23 -43 116 -101 198 -123 65 -18 75 -19 106 -5 20 8 42 12 50 9 15 -6
79 22 142 63 55 36 109 117 141 211 l25 75 -17 71 c-36 145 -43 159 -104 212
-57 50 -201 125 -238 123 -11 0 -35 -6 -54 -13z m95 -22 c14 -6 14 -9 -5 -29
-27 -29 -23 -55 13 -75 27 -14 29 -14 48 9 11 14 17 31 14 42 -6 17 -3 18 20
9 64 -24 166 -134 150 -161 -4 -5 -1 -16 5 -24 6 -8 9 -19 5 -25 -3 -5 0 -10
7 -10 7 0 4 -6 -7 -12 -29 -16 -35 -29 -23 -51 7 -13 17 -18 34 -14 21 4 24 0
23 -22 0 -23 -1 -24 -8 -6 -6 16 -12 6 -30 -46 -26 -79 -44 -107 -74 -111 -18
-2 -22 -9 -21 -35 1 -24 -3 -33 -20 -37 -23 -6 -87 -66 -69 -66 6 0 22 10 37
21 15 12 29 19 32 16 6 -6 -77 -57 -92 -57 -5 0 -2 5 6 10 22 14 -85 13 -111
-1 -16 -8 -25 -7 -40 7 -13 11 -28 15 -49 11 -16 -4 -42 -2 -58 3 -25 9 -26 9
-8 -5 11 -8 15 -15 8 -15 -6 0 -21 13 -33 30 -22 29 -58 52 -43 27 5 -7 1 -7
-10 2 -27 23 -50 73 -51 111 0 31 -3 35 -25 35 -24 0 -25 3 -32 95 -6 79 -4
101 10 130 14 28 23 35 47 35 35 0 45 24 20 49 -15 15 -15 18 3 41 11 13 39
40 62 60 l43 36 11 -23 c6 -13 20 -24 31 -26 22 -5 46 23 38 44 -3 10 2 14 18
14 13 0 31 5 39 10 17 11 61 13 85 4z m272 -416 c-3 -8 -6 -5 -6 6 -1 11 2 17
5 13 3 -3 4 -12 1 -19z m-16 -49 c-5 -13 -10 -19 -10 -12 -1 15 10 45 15 40 3
-2 0 -15 -5 -28z m-30 -62 l-24 -22 19 27 c10 14 21 24 23 22 3 -3 -6 -15 -18
-27z m-51 -82 c-7 -8 -17 -15 -22 -15 -6 0 -5 7 2 15 7 8 17 15 22 15 6 0 5
-7 -2 -15z m-185 -74 c-6 -5 -23 -12 -40 -15 -28 -6 -28 -5 5 8 43 18 46 18
35 7z"/>
<path d="M700 720 c-23 -23 -24 -33 -10 -61 14 -26 66 -26 80 0 15 28 13 38
-12 61 -27 25 -33 25 -58 0z"/>
<path d="M410 712 c-29 -24 -21 -67 15 -84 52 -23 89 54 43 86 -28 20 -31 20
-58 -2z"/>
<path d="M570 565 c-19 -23 -8 -50 20 -50 16 0 26 6 28 18 4 18 -14 47 -28 47
-4 0 -13 -7 -20 -15z"/>
<path d="M216 551 c-33 -36 10 -94 53 -72 27 15 34 41 16 67 -19 29 -46 31
-69 5z"/>
<path d="M662 464 c-31 -21 -29 -61 4 -76 18 -9 30 -9 42 -1 24 14 22 63 -3
79 -18 12 -24 11 -43 -2z"/>
<path d="M452 458 c-7 -7 -12 -21 -12 -33 0 -46 53 -62 71 -21 21 45 -26 87
-59 54z"/>
<path d="M352 378 c-30 -30 11 -85 44 -57 25 21 11 69 -21 69 -6 0 -16 -5 -23
-12z"/>
<path d="M561 291 c-26 -26 -26 -43 -3 -64 23 -21 46 -22 62 -3 17 21 9 56
-17 73 -19 13 -24 12 -42 -6z"/>
</g>
</svg>
